<?xml version="1.0" standalone="no"?>
<!DOCTYPE svg PUBLIC "-//W3C//DTD SVG 20010904//EN"
 "http://www.w3.org/TR/2001/REC-SVG-20010904/DTD/svg10.dtd">
<svg version="1.0" xmlns="http://www.w3.org/2000/svg"
 width="2048.000000pt" height="2048.000000pt" viewBox="0 0 2048.000000 2048.000000"
 preserveAspectRatio="xMidYMid meet">
<metadata>
Created by potrace 1.11, written by Peter Selinger 2001-2013
</metadata>
<g transform="translate(0.000000,2048.000000) scale(0.100000,-0.100000)"
fill="#000000" stroke="none">
<path d="M9660 20469 c-2330 -135 -4501 -1037 -6255 -2598 -177 -157 -652
-634 -810 -811 -1377 -1555 -2236 -3425 -2509 -5460 -60 -447 -86 -856 -86
-1360 0 -504 26 -913 86 -1360 273 -2035 1132 -3905 2509 -5460 166 -187 638
-659 825 -825 1555 -1377 3425 -2236 5460 -2509 447 -60 856 -86 1360 -86 504
0 913 26 1360 86 2035 273 3905 1132 5460 2509 187 166 659 638 825 825 1377
1555 2236 3425 2509 5460 60 447 86 856 86 1360 0 504 -26 913 -86 1360 -273
2035 -1132 3905 -2509 5460 -166 187 -638 659 -825 825 -1555 1377 -3425 2236
-5460 2509 -223 30 -558 61 -809 76 -213 12 -918 11 -1131 -1z m1933 -1183
c39 -16 87 -70 87 -96 0 -26 6 -29 165 -78 195 -60 468 -171 664 -268 153 -75
397 -216 457 -263 29 -23 32 -22 259 54 239 80 437 178 712 352 73 45 139 83
147 83 32 0 84 -171 93 -305 11 -180 -25 -235 -223 -335 -90 -45 -108 -59
-106 -75 19 -109 15 -131 -34 -185 -36 -40 -143 -90 -226 -105 -21 -4 -38 -11
-38 -15 0 -12 82 -130 91 -130 3 0 48 20 99 44 l93 44 54 -26 c29 -14 53 -29
53 -33 0 -3 -21 -14 -47 -24 -52 -20 -203 -93 -203 -99 0 -2 22 -50 49 -107
47 -98 110 -273 146 -401 l15 -57 98 48 c227 114 522 192 717 190 54 0 67 -4
133 -48 l73 -48 -55 5 c-74 6 -291 -14 -404 -38 -50 -11 -140 -35 -200 -55
-128 -43 -338 -146 -336 -166 1 -8 11 -69 22 -136 12 -68 29 -203 39 -302 l18
-179 80 63 c220 170 462 255 729 255 567 0 1044 -391 1162 -952 22 -103 24
-322 5 -428 -62 -342 -274 -646 -572 -821 -52 -30 -69 -45 -66 -57 9 -29 188
-496 191 -500 6 -5 102 45 191 100 408 254 699 671 796 1143 29 145 37 423 15
570 -9 61 -19 121 -23 135 -4 19 8 10 53 -39 32 -35 63 -74 67 -85 15 -38 20
-317 8 -431 -26 -234 -78 -412 -186 -630 -90 -180 -176 -304 -310 -443 -155
-162 -299 -272 -490 -372 -56 -29 -79 -47 -77 -58 7 -33 106 -220 157 -297 29
-44 77 -106 107 -139 l53 -59 70 36 c177 89 422 273 588 441 297 301 529 713
626 1111 13 50 25 98 28 108 4 14 12 8 39 -30 19 -26 34 -58 34 -70 0 -35 -67
-248 -115 -365 -126 -307 -291 -560 -520 -797 -185 -191 -362 -331 -568 -449
-98 -56 -98 -51 -12 -96 39 -20 24 -20 -64 0 l-71 16 -97 -42 c-188 -83 -383
-141 -608 -181 -93 -17 -175 -23 -366 -26 l-245 -5 -29 -117 c-16 -64 -55
-192 -85 -284 -31 -92 -54 -170 -50 -172 4 -2 88 -9 187 -16 357 -22 733 22
1083 128 505 152 974 439 1341 821 241 249 408 487 566 806 l69 138 29 -54 28
-54 -74 -145 c-84 -165 -235 -396 -358 -549 -110 -137 -347 -373 -486 -484
-451 -360 -979 -590 -1555 -677 -122 -19 -190 -23 -430 -23 -157 -1 -322 2
-366 7 l-82 7 -37 -87 c-87 -208 -151 -443 -182 -668 -6 -50 -6 -49 -44 105
-21 85 -66 281 -100 435 -33 154 -62 285 -64 291 -2 6 -36 21 -77 33 -112 33
-312 109 -420 159 l-98 45 0 53 c0 30 2 54 5 54 3 0 42 -19 88 -41 134 -68
460 -190 472 -177 2 2 -10 73 -26 158 -16 85 -43 233 -59 329 -16 96 -31 175
-32 176 -2 1 -43 21 -93 44 -49 23 -124 62 -167 87 l-78 45 -80 -66 -81 -65
-224 0 c-124 0 -225 2 -225 5 0 3 30 58 66 122 69 121 144 276 144 297 0 6
-23 34 -51 61 -97 94 -241 270 -328 400 -336 503 -480 1101 -410 1705 18 162
44 274 126 551 3 12 -14 27 -61 53 -94 53 -214 146 -280 217 -31 34 -59 60
-60 58 -2 -2 5 -44 15 -94 21 -101 25 -248 8 -327 -24 -116 -115 -255 -186
-284 -18 -8 -57 -14 -86 -14 l-54 0 -6 -42 c-21 -153 -29 -333 -24 -513 10
-322 56 -580 157 -885 151 -455 373 -823 716 -1187 l115 -123 -69 0 -70 0
-107 119 c-529 590 -806 1272 -841 2062 -6 150 7 415 26 537 6 32 6 60 1 65
-5 5 -27 11 -49 14 -49 7 -73 -6 -190 -100 -97 -78 -149 -107 -195 -107 -53 0
-130 45 -196 116 -89 95 -89 95 -33 138 26 20 87 76 136 124 191 188 342 431
451 727 62 168 72 143 -113 279 -172 124 -323 243 -466 365 -48 42 -93 75
-100 75 -6 -1 -32 -8 -57 -15 -42 -11 -50 -10 -92 10 -63 31 -89 69 -89 131 1
27 6 58 11 69 16 30 15 33 -39 100 -62 78 -125 183 -141 239 -7 23 -18 42 -26
42 -8 0 -25 11 -38 25 -31 30 -33 78 -5 98 19 13 20 19 9 92 -35 256 97 450
367 539 40 13 54 23 65 49 18 40 58 48 87 17 18 -19 24 -20 83 -10 35 6 127
13 204 17 139 6 139 6 164 36 40 48 80 67 139 67 29 0 67 -6 85 -14z m-4704
-276 c119 -13 256 -46 359 -89 288 -119 517 -368 603 -654 15 -49 24 -66 32
-59 7 4 32 24 57 44 63 49 154 102 228 131 282 115 556 51 792 -183 98 -98
158 -200 190 -326 34 -131 23 -331 -24 -463 -9 -24 -16 -44 -16 -45 0 0 39 -2
88 -3 336 -5 620 -206 761 -538 74 -176 63 -331 -39 -540 -98 -202 -227 -360
-638 -780 -510 -521 -610 -614 -897 -830 -138 -104 -419 -293 -497 -335 l-47
-24 -173 38 c-95 21 -212 47 -261 58 l-87 20 -69 96 c-315 441 -582 1052 -709
1622 -58 261 -67 341 -66 635 0 297 2 322 79 795 67 411 77 511 77 725 0 207
-14 331 -58 519 -15 63 -24 121 -21 129 10 25 60 46 134 56 96 12 91 12 202 1z
m-1107 -1412 c109 -51 188 -135 258 -275 74 -148 102 -287 130 -637 58 -735
380 -1503 871 -2076 l82 -95 -127 125 c-282 277 -472 534 -625 845 -160 325
-231 578 -301 1076 -43 304 -70 415 -119 490 -67 101 -143 104 -298 16 -87
-50 -106 -57 -154 -57 -72 0 -160 42 -217 104 -56 61 -64 84 -65 186 -1 75 2
93 26 143 60 122 200 189 387 184 79 -2 105 -7 152 -29z m4503 -1778 c140 -67
254 -218 263 -348 4 -57 1 -70 -33 -139 -66 -133 -293 -348 -560 -529 -60 -41
-104 -74 -97 -74 7 0 54 8 104 17 138 25 388 22 490 -5 144 -39 239 -104 292
-203 130 -238 26 -523 -238 -653 -97 -48 -180 -66 -309 -66 -138 0 -226 18
-412 87 -295 108 -463 165 -675 230 -222 67 -639 181 -745 203 -33 7 -66 15
-73 19 -8 5 32 36 110 88 136 88 247 174 473 363 343 286 439 378 684 660 248
284 297 328 412 370 43 16 73 20 149 17 84 -3 103 -7 165 -37z m-6929 -545
c510 -74 832 -313 957 -710 36 -115 50 -221 51 -378 1 -76 4 -130 8 -120 111
282 187 405 332 540 263 245 637 306 1104 182 95 -25 318 -101 329 -113 2 -2
-15 -90 -37 -196 -22 -106 -39 -194 -37 -196 2 -2 90 8 197 22 106 14 196 22
200 17 11 -13 58 -186 87 -323 24 -112 27 -147 28 -330 0 -166 -4 -220 -19
-285 -85 -365 -330 -609 -744 -742 l-117 -38 120 -6 c519 -29 860 -297 984
-772 39 -151 53 -281 53 -500 0 -115 -1 -210 -3 -211 -2 -2 -91 -13 -198 -25
-107 -11 -196 -23 -198 -25 -4 -4 16 -49 110 -248 l56 -118 -121 -80 c-213
-141 -445 -244 -643 -285 -119 -25 -307 -23 -420 4 -236 56 -450 214 -630 466
-31 44 -58 81 -59 82 -1 1 11 -48 27 -110 86 -341 48 -627 -116 -872 -126
-188 -389 -371 -682 -475 -91 -32 -297 -92 -300 -87 -1 1 -23 51 -49 111 -27
60 -64 143 -82 183 l-34 75 -147 -140 -147 -140 -75 58 c-440 334 -664 714
-638 1079 15 213 106 434 258 628 27 35 49 65 49 68 0 2 -37 -20 -82 -49 -113
-73 -191 -111 -311 -151 -251 -84 -483 -69 -713 45 -230 113 -427 301 -625
596 l-68 102 149 133 c81 74 146 137 144 141 -2 3 -81 48 -174 98 -94 50 -170
96 -170 100 0 25 78 221 135 337 183 378 397 586 702 680 82 25 101 27 263 27
191 0 275 -14 445 -75 70 -25 77 -27 55 -9 -217 179 -315 293 -400 472 -175
365 -87 786 260 1247 48 64 95 123 104 130 13 11 41 -2 181 -83 92 -53 170
-96 175 -96 4 0 20 64 34 143 15 78 31 166 37 196 l11 54 143 -6 c79 -4 192
-13 251 -22z m4084 -1006 c35 -17 79 -41 97 -55 31 -24 34 -24 120 -14 115 13
386 13 493 0 325 -41 624 -150 895 -328 208 -136 371 -290 391 -367 25 -100
-68 -82 -259 49 -174 118 -385 210 -622 271 -207 53 -325 65 -651 65 l-285 0
-33 -34 c-82 -82 -207 -103 -330 -56 -124 47 -182 146 -174 295 3 62 8 80 33
116 30 43 81 75 138 90 49 12 116 1 187 -32z m1410 -1604 c0 -157 3 -285 8
-285 4 1 97 128 207 283 l201 282 382 3 382 2 0 -352 -1 -353 -194 -268 -195
-267 195 -268 195 -267 0 -353 0 -352 -382 2 -382 3 -201 282 c-110 155 -203
282 -207 283 -5 0 -8 -128 -8 -285 l0 -285 -655 0 -655 0 0 1240 0 1240 655 0
655 0 0 -285z m3812 8 l278 -278 0 -685 0 -685 -277 -277 -278 -278 -690 0
-690 0 -277 277 -278 278 0 685 0 685 277 277 278 278 690 0 690 0 277 -277z
m4288 -138 c114 -36 238 -102 351 -187 134 -101 223 -139 450 -197 107 -27
219 -60 249 -73 79 -36 157 -99 214 -171 56 -72 222 -399 260 -514 79 -236 75
-450 -11 -668 -36 -89 -36 -91 -37 -250 -1 -150 -3 -163 -27 -215 -14 -30 -47
-80 -73 -110 -63 -75 -227 -221 -308 -276 l-67 -45 23 -53 c13 -30 48 -101 78
-160 38 -73 50 -105 39 -102 -105 30 -536 136 -544 133 -5 -1 101 -128 237
-282 135 -153 244 -280 242 -282 -2 -2 -79 -19 -172 -38 -309 -62 -451 -105
-630 -190 l-111 -52 -18 -74 c-52 -215 -156 -397 -326 -569 -106 -107 -176
-141 -377 -180 -85 -17 -182 -42 -217 -55 -98 -37 -208 -49 -379 -42 -301 13
-597 79 -813 184 -108 52 -153 93 -249 228 -40 55 -133 173 -208 263 -75 89
-159 197 -187 239 -121 178 -172 363 -199 712 -14 178 -4 289 51 571 22 113
62 336 90 495 69 404 98 513 175 671 84 172 235 329 504 524 159 115 210 167
308 312 82 120 138 169 253 222 124 56 272 85 440 86 93 0 100 2 190 44 219
104 358 136 564 132 131 -3 161 -7 235 -31z m-6920 -2950 l0 -425 -267 -2
-268 -3 -3 -812 -2 -813 -710 0 -710 0 0 815 0 815 -265 0 -265 0 0 425 0 425
1245 0 1245 0 0 -425z m2632 148 l278 -278 0 -685 0 -685 -277 -277 -278 -278
-690 0 -690 0 -277 277 -278 278 0 685 0 685 277 277 278 278 690 0 690 0 277
-277z m-7438 151 c60 -59 -67 -244 -168 -244 -50 0 -96 70 -82 125 21 84 200
170 250 119z m1485 -60 c26 -32 28 -98 6 -171 -35 -119 -166 -159 -249 -76
-32 31 -33 69 -6 124 61 119 199 187 249 123z m11482 -120 c73 -90 214 -206
394 -326 83 -55 152 -102 154 -104 11 -10 -101 -734 -113 -734 -1 0 -63 31
-138 68 -250 127 -484 190 -737 199 l-155 6 57 28 c163 83 431 109 682 65 67
-12 73 -11 65 3 -6 9 -122 131 -259 271 -137 140 -248 256 -247 257 4 4 169
-64 366 -152 96 -42 195 -86 220 -97 43 -19 42 -17 -43 62 -139 130 -239 276
-280 405 -18 58 -30 115 -25 115 2 0 29 -30 59 -66z m-15916 -44 c14 -16 17
-30 12 -75 -11 -104 -81 -185 -147 -170 -34 7 -97 73 -106 110 -13 50 36 116
106 144 45 18 115 13 135 -9z m3900 -304 c84 -40 125 -97 125 -176 0 -51 -12
-80 -51 -125 -48 -54 -120 -87 -204 -93 -61 -3 -74 -1 -105 20 -52 35 -64 81
-45 171 19 92 68 193 103 212 42 22 119 18 177 -9z m-2289 -384 c30 -24 69
-63 86 -87 l31 -44 36 29 c37 30 105 63 153 74 l27 6 -14 -35 c-23 -53 -19
-168 10 -281 41 -161 33 -227 -36 -321 l-38 -51 53 -121 c29 -67 55 -123 57
-125 2 -3 88 131 190 297 163 266 189 302 213 305 33 4 56 -13 56 -42 0 -18
-77 -147 -352 -592 l-56 -90 36 -82 c19 -45 38 -82 42 -82 4 0 78 116 165 258
221 358 210 344 248 340 24 -2 34 -10 41 -29 8 -22 -15 -63 -194 -355 -112
-181 -205 -332 -207 -336 -2 -5 62 -165 72 -176 1 -1 78 120 170 270 92 150
179 288 192 306 30 40 66 43 89 7 15 -23 15 -27 -3 -57 -11 -18 -104 -169
-206 -336 -103 -166 -187 -306 -187 -310 0 -18 134 -312 141 -310 5 2 89 142
188 312 l179 308 42 -133 c144 -459 168 -533 176 -536 8 -2 44 44 152 197 l33
46 -126 368 c-69 203 -125 375 -123 384 2 9 15 23 30 32 26 14 29 13 47 -5 12
-12 67 -157 132 -345 61 -179 112 -326 114 -328 2 -2 28 31 59 72 l56 75 -125
364 c-69 200 -125 372 -125 383 0 50 70 62 93 17 8 -16 60 -165 117 -333 57
-168 106 -309 110 -313 5 -5 33 24 63 64 l55 72 -88 256 c-48 141 -104 303
-124 359 -42 120 -45 157 -16 172 25 13 57 5 69 -18 5 -9 57 -159 116 -332 60
-173 111 -318 115 -323 3 -4 37 35 74 88 38 52 77 102 87 111 17 15 16 18 -7
67 -17 38 -24 70 -24 117 0 59 5 75 55 175 62 125 89 219 82 282 -2 24 -3 43
0 43 18 0 99 -59 137 -100 l45 -49 33 31 c36 34 175 104 226 114 l32 7 0 -71
c0 -83 -15 -163 -41 -213 l-18 -37 62 -30 c34 -17 79 -49 100 -70 l38 -39 -41
-6 c-59 -8 -138 -59 -246 -159 -51 -48 -110 -95 -131 -103 -40 -17 -114 -22
-178 -12 l-40 7 -75 -106 c-41 -58 -76 -110 -78 -114 -2 -4 136 -11 305 -15
169 -4 333 -10 363 -13 48 -6 56 -10 64 -35 8 -22 6 -31 -10 -47 -19 -20 -27
-20 -314 -10 -162 5 -340 10 -395 10 l-100 -1 -52 -71 c-29 -39 -51 -73 -49
-75 2 -2 160 -8 352 -14 374 -12 384 -14 384 -64 0 -47 -12 -48 -303 -41 -149
3 -326 9 -392 12 l-121 6 -52 -71 c-29 -39 -52 -76 -52 -81 0 -6 46 -10 113
-11 272 -1 587 -16 602 -29 22 -18 19 -67 -4 -80 -13 -7 -110 -7 -303 0 -156
5 -331 10 -390 10 l-106 0 -96 -130 c-53 -71 -96 -132 -96 -135 0 -3 167 -6
372 -7 l372 -3 -242 -263 c-133 -145 -242 -267 -242 -271 0 -4 77 -15 172 -25
l172 -19 25 30 c14 16 131 149 259 296 249 286 262 296 298 242 15 -23 15 -27
1 -48 -8 -13 -115 -138 -237 -278 l-221 -254 48 -6 c26 -4 69 -9 94 -13 l46
-5 253 290 c139 160 263 296 276 301 19 9 28 8 44 -7 11 -10 20 -28 20 -39 0
-13 -89 -123 -230 -285 -157 -180 -227 -267 -218 -272 7 -4 49 -10 93 -14 l80
-6 257 295 c276 317 288 326 324 271 15 -22 15 -27 1 -48 -8 -12 -114 -137
-236 -277 -122 -140 -219 -256 -214 -257 4 -1 69 -9 143 -18 l135 -16 15 23
c67 101 122 127 289 138 134 9 228 33 279 69 17 11 33 21 37 21 12 0 -3 -132
-20 -180 -19 -54 -19 -60 3 -60 34 0 142 -61 197 -112 30 -27 55 -54 55 -58 0
-24 -223 -110 -285 -110 -19 0 -20 -5 -17 -79 2 -43 -1 -96 -7 -118 l-11 -40
-44 42 c-54 52 -122 85 -246 120 -52 14 -114 38 -138 52 -47 27 -95 93 -114
156 -6 20 -14 37 -17 37 -3 0 -64 7 -135 15 -71 9 -131 14 -133 12 -2 -3 71
-142 162 -310 91 -168 165 -315 165 -326 0 -11 -11 -28 -25 -37 -22 -14 -28
-15 -46 -2 -12 7 -104 167 -204 353 l-184 340 -86 9 c-47 5 -88 6 -91 3 -3 -3
59 -126 139 -274 205 -381 191 -350 172 -379 -21 -33 -59 -31 -83 4 -10 15
-94 167 -185 337 -92 171 -171 316 -175 323 -8 12 -179 39 -188 29 -2 -2 70
-141 161 -309 91 -168 165 -315 165 -326 0 -12 -11 -29 -25 -38 -22 -14 -28
-14 -46 -3 -11 8 -103 167 -204 354 l-183 340 -148 18 c-234 27 -231 63 -23
-298 98 -170 176 -311 175 -313 -2 -1 -157 32 -345 73 -188 42 -346 75 -351
73 -9 -3 113 -294 130 -312 5 -5 178 -42 386 -82 207 -41 383 -79 390 -85 19
-15 18 -54 -2 -73 -8 -9 -18 -16 -22 -16 -4 0 -157 29 -340 65 -183 36 -339
65 -346 65 -11 0 -5 -22 21 -82 20 -46 37 -84 38 -86 1 -2 175 -37 386 -78
391 -76 409 -81 409 -124 0 -9 -9 -25 -19 -34 -19 -17 -34 -15 -366 49 -190
37 -348 66 -350 63 -4 -4 60 -156 70 -166 2 -2 752 -152 762 -152 11 0 32 -51
27 -64 -15 -40 -34 -38 -384 30 -187 37 -343 64 -346 62 -3 -3 19 -62 48 -131
l53 -124 47 -6 c53 -7 132 -38 161 -65 11 -9 48 -60 83 -113 66 -101 168 -204
209 -215 14 -3 25 -10 25 -16 0 -15 -121 -67 -171 -74 l-47 -6 9 -32 c21 -71
2 -296 -25 -296 -34 0 -173 106 -215 164 l-32 45 -44 -33 c-24 -19 -68 -42
-97 -51 -29 -10 -59 -20 -65 -22 -10 -4 -9 4 2 31 23 55 19 178 -10 290 -40
155 -32 225 36 315 l39 51 -51 117 c-28 65 -54 121 -58 125 -3 4 -90 -129
-192 -295 -163 -266 -189 -302 -213 -305 -33 -4 -56 13 -56 42 0 12 92 171
205 354 l204 331 -38 87 -39 87 -24 -39 c-14 -21 -92 -147 -173 -279 -182
-296 -182 -295 -207 -295 -25 0 -58 27 -58 47 0 8 91 161 202 341 111 180 202
336 201 347 0 11 -16 53 -35 94 l-34 74 -168 -274 c-93 -151 -180 -289 -193
-306 -37 -50 -93 -41 -93 15 0 14 84 161 200 348 110 179 200 328 200 332 1
21 -136 320 -143 313 -5 -5 -89 -147 -187 -315 -123 -212 -180 -302 -184 -289
-28 98 -209 669 -213 673 -5 5 -12 -3 -127 -161 l-85 -116 125 -366 c91 -263
125 -373 120 -391 -9 -35 -51 -46 -76 -20 -10 11 -66 161 -125 334 -59 173
-111 321 -114 327 -7 13 -115 -121 -114 -142 0 -5 55 -169 122 -363 66 -194
121 -363 121 -376 0 -30 -18 -46 -53 -46 -34 0 -24 -24 -157 365 -56 165 -106
304 -110 308 -7 8 -110 -124 -110 -142 0 -5 53 -166 119 -358 65 -191 122
-358 125 -370 5 -15 1 -28 -13 -42 -54 -54 -69 -29 -185 309 -57 168 -109 318
-115 333 l-11 29 -85 -115 -85 -115 21 -48 c13 -31 21 -72 22 -110 1 -54 -6
-74 -56 -180 -65 -136 -92 -230 -83 -286 3 -21 3 -38 -1 -38 -17 0 -108 67
-142 106 -38 43 -38 43 -56 24 -32 -35 -110 -80 -194 -110 l-81 -30 0 68 c0
79 23 195 45 228 8 13 15 25 15 27 0 2 -28 18 -62 35 -35 17 -81 49 -103 71
l-39 41 30 0 c56 0 148 57 253 154 123 116 157 131 274 124 l82 -5 73 98 c40
55 75 106 78 114 5 13 -11 15 -112 16 -66 0 -224 4 -353 8 -223 7 -235 9 -252
29 -19 25 -15 58 10 71 9 5 132 5 276 0 143 -4 319 -8 390 -8 l131 -1 53 71
c29 39 51 72 49 75 -2 2 -161 8 -354 15 -291 9 -352 13 -366 26 -23 20 -23 47
-1 69 16 15 39 16 263 10 135 -3 311 -9 392 -12 l146 -7 52 71 c28 39 51 74
51 79 -1 4 -158 13 -349 18 -372 11 -382 12 -382 61 0 50 22 53 300 44 140 -5
316 -9 390 -9 l135 0 95 131 c52 72 97 134 98 139 2 5 -155 9 -357 9 -199 0
-361 2 -361 5 0 3 108 123 240 267 132 143 240 264 240 268 0 7 -130 24 -275
37 l-71 6 -257 -297 c-205 -235 -263 -296 -282 -296 -29 0 -59 39 -49 64 3 9
109 134 235 278 l229 263 -33 6 c-17 4 -60 10 -93 13 l-61 7 -258 -296 c-218
-250 -261 -295 -284 -295 -32 0 -51 16 -51 45 0 13 88 122 230 285 127 146
230 268 230 271 0 3 -41 10 -91 15 l-91 10 -259 -298 c-264 -303 -283 -320
-317 -286 -33 33 -15 60 218 328 126 145 228 266 226 267 -2 2 -58 10 -126 18
-67 8 -129 16 -139 19 -11 3 -25 -10 -46 -42 -17 -27 -50 -59 -78 -76 -43 -26
-62 -30 -186 -42 -155 -13 -230 -32 -283 -68 l-36 -24 -6 21 c-6 26 8 131 23
170 14 37 14 47 -3 47 -45 0 -256 140 -256 170 0 19 168 92 236 103 l69 11 -3
76 c-2 42 1 95 7 118 l12 41 39 -39 c52 -52 116 -83 247 -121 59 -17 125 -42
146 -55 48 -31 91 -91 107 -149 10 -35 17 -45 34 -45 11 -1 73 -7 136 -15 63
-7 117 -12 118 -10 2 2 -71 142 -162 311 -91 170 -166 316 -166 325 0 26 36
52 63 45 19 -4 59 -72 207 -346 100 -187 190 -345 199 -349 9 -5 53 -12 98
-16 l82 -7 -170 316 c-167 310 -170 317 -155 341 19 29 56 33 78 8 9 -10 96
-167 194 -349 l178 -332 90 -10 c50 -6 92 -9 94 -7 2 1 -71 141 -162 310 -91
169 -166 315 -166 325 0 43 54 65 83 33 8 -10 95 -166 193 -348 97 -181 179
-332 180 -333 4 -6 326 -43 341 -40 7 2 -56 121 -166 313 -98 171 -175 311
-171 313 4 1 161 -32 349 -73 189 -42 345 -75 347 -72 3 3 -122 301 -133 316
-1 2 -173 37 -380 78 -208 40 -384 75 -391 78 -32 12 -26 79 8 90 11 3 173
-24 361 -60 187 -37 342 -65 344 -63 8 8 -70 168 -84 172 -9 3 -169 35 -356
71 -426 83 -413 79 -421 111 -5 19 -1 32 15 47 l21 21 346 -68 c190 -37 348
-65 350 -63 8 7 -64 162 -78 169 -7 4 -179 39 -383 78 -203 40 -376 77 -383
83 -17 14 -11 67 9 80 12 7 111 -8 359 -57 188 -37 345 -65 348 -62 2 3 -19
62 -49 130 l-54 125 -45 6 c-115 16 -161 49 -245 177 -75 113 -135 177 -194
208 -23 11 -40 24 -37 28 10 16 104 57 156 68 39 8 54 15 51 25 -17 56 -6 276
15 311 7 10 71 -26 140 -80z m1460 7 c49 -47 75 -102 81 -168 5 -66 -8 -96
-57 -129 -31 -21 -43 -23 -115 -20 -155 9 -255 61 -255 134 0 47 30 103 80
148 95 86 199 100 266 35z m-2371 -19 c135 -51 79 -230 -97 -310 -97 -44 -170
-16 -183 71 -14 97 32 195 109 230 45 20 129 25 171 9z m10934 -687 c69 -70
107 -98 181 -138 316 -168 670 -482 946 -840 194 -251 248 -304 368 -360 202
-95 501 -182 786 -229 352 -59 636 -79 1095 -78 452 0 780 20 1223 73 95 12
175 19 177 17 5 -5 -39 -389 -65 -567 -28 -195 -66 -380 -96 -471 -32 -97
-163 -366 -266 -547 l-81 -143 -86 47 c-47 25 -216 118 -375 205 -159 87 -291
156 -293 154 -3 -2 115 -142 261 -311 146 -168 266 -311 266 -317 0 -45 -326
-398 -560 -607 l-65 -59 -280 306 c-154 168 -345 376 -424 463 -80 87 -146
157 -148 155 -2 -2 50 -90 115 -197 65 -107 216 -354 336 -549 l217 -355 -28
-23 c-92 -74 -455 -303 -593 -372 -171 -86 -327 -134 -471 -145 l-84 -7 -199
392 c-109 215 -200 389 -202 387 -2 -2 27 -109 65 -238 38 -129 94 -319 125
-424 30 -104 52 -193 48 -197 -15 -14 -244 -78 -368 -101 -358 -69 -646 -66
-886 9 -87 27 -253 109 -302 149 l-30 24 91 188 c378 778 651 1568 752 2173
38 224 46 324 45 550 0 257 -14 359 -70 530 -81 243 -294 570 -506 776 -201
195 -299 249 -665 364 -73 23 -147 52 -165 64 -79 53 -72 215 14 304 25 25 40
32 71 32 37 0 47 -7 126 -87z m-11157 -233 c23 -29 24 -110 1 -175 -22 -67
-104 -151 -156 -160 -51 -10 -115 15 -166 66 -55 53 -57 97 -5 157 100 117
274 176 326 112z m9498 -1252 c147 -413 232 -746 280 -1108 36 -269 38 -674 3
-892 l-5 -36 104 28 c356 95 860 140 1353 120 237 -10 422 -23 430 -31 7 -8
-80 -202 -148 -331 -188 -359 -397 -641 -668 -903 -180 -174 -363 -307 -568
-410 l-75 -37 85 -33 c345 -134 700 -360 1058 -674 75 -65 153 -137 175 -159
l38 -40 -108 -35 c-221 -71 -513 -133 -794 -169 -127 -16 -637 -16 -725 -1
-33 6 -62 9 -64 7 -3 -3 5 -42 17 -87 66 -244 105 -465 118 -659 l7 -108 -99
34 c-559 188 -1037 478 -1274 773 -102 127 -163 245 -199 386 l-18 68 -28
-108 c-131 -508 -333 -958 -612 -1368 -160 -234 -226 -283 -327 -241 -52 22
-102 72 -140 141 -64 113 -47 147 102 200 50 18 119 50 154 71 90 53 243 210
318 324 136 208 252 511 324 847 l23 111 -91 -70 c-233 -178 -499 -255 -841
-245 -240 8 -446 47 -710 137 -118 40 -370 142 -383 154 -7 8 154 178 249 262
128 113 254 207 375 280 l96 57 -138 71 c-288 148 -545 346 -829 637 -142 145
-335 368 -335 386 0 6 61 20 137 32 243 39 428 54 686 55 243 1 248 1 244 21
-2 11 -18 67 -35 125 -117 400 -141 865 -75 1413 9 75 20 137 25 137 5 0 71
-33 146 -74 452 -243 870 -539 1164 -824 125 -122 127 -123 134 -95 81 367
252 705 534 1058 124 155 426 461 600 606 141 118 282 229 292 229 3 0 11 -15
18 -32z m-2860 -107 c14 -10 33 -38 43 -62 16 -38 17 -51 8 -87 -15 -53 -68
-107 -121 -123 -122 -37 -229 106 -157 211 56 83 157 110 227 61z m-872 -521
c65 -40 92 -132 58 -199 -22 -42 -80 -89 -126 -101 -79 -21 -134 30 -147 139
-7 63 10 113 53 151 28 24 44 30 82 30 29 0 59 -8 80 -20z m81 -1185 c31 -30
52 -112 41 -160 -5 -21 -21 -50 -36 -66 -50 -52 -141 -33 -196 42 -17 22 -18
32 -9 66 22 82 106 161 156 147 11 -3 31 -16 44 -29z m-939 -283 c41 -20 80
-83 80 -130 0 -95 -168 -132 -308 -67 -102 47 -107 108 -12 160 101 54 182 67
240 37z m-700 -877 c87 -45 80 -144 -19 -257 -44 -50 -128 -98 -171 -98 -16 0
-37 11 -51 26 -20 21 -24 38 -27 99 -2 41 1 89 8 110 15 46 65 104 105 121 41
18 120 17 155 -1z m1450 -383 c64 -65 67 -208 6 -291 -60 -81 -185 -136 -297
-129 -41 2 -76 10 -93 22 -27 17 -28 22 -24 75 6 82 48 163 127 242 78 77 137
109 204 109 40 0 54 -5 77 -28z m-2575 -182 c396 -97 608 -125 766 -99 130 21
262 15 476 -19 105 -18 213 -39 240 -48 156 -53 345 -181 652 -443 151 -129
344 -262 478 -329 120 -61 303 -129 578 -218 353 -113 490 -176 561 -256 91
-104 27 -245 -198 -435 -118 -100 -178 -127 -358 -160 -144 -26 -559 -23 -775
6 -444 60 -770 158 -1017 306 -62 37 -210 131 -328 209 -266 175 -429 258
-626 320 -433 138 -701 277 -901 469 -187 180 -331 463 -309 608 15 97 88 173
197 207 l61 19 151 -44 c84 -24 242 -66 352 -93z"/>
<path d="M14655 16743 c-198 -28 -427 -140 -577 -284 l-67 -64 10 -210 c6
-115 14 -213 17 -216 4 -3 45 -14 91 -23 45 -10 89 -20 96 -22 8 -4 25 18 46
58 20 37 63 92 106 135 252 250 656 240 902 -23 66 -70 130 -189 152 -284 16
-70 16 -208 0 -280 -33 -141 -136 -293 -255 -375 -31 -21 -56 -44 -56 -51 0
-22 37 -110 108 -259 36 -77 67 -142 69 -144 1 -2 30 14 65 35 445 267 643
790 483 1274 -56 169 -133 290 -275 430 -215 213 -456 312 -755 308 -71 0
-143 -3 -160 -5z"/>
<path d="M12496 16412 c-79 -238 -111 -452 -111 -742 0 -165 5 -256 18 -340
78 -507 299 -966 638 -1324 l93 -98 19 43 c63 149 127 460 127 619 l0 98 -47
79 c-203 342 -289 779 -232 1178 6 39 22 119 36 178 14 60 23 109 22 111 -42
31 -243 136 -436 226 l-102 48 -25 -76z"/>
<path d="M14681 16184 c-84 -22 -171 -73 -237 -139 -52 -52 -113 -140 -102
-150 2 -2 44 -19 93 -38 272 -104 448 -230 532 -378 25 -45 81 -177 107 -252
8 -26 36 -9 117 72 213 213 209 547 -10 753 -109 103 -221 148 -366 147 -44 0
-104 -7 -134 -15z"/>
<path d="M13145 16138 c-30 -91 -55 -249 -62 -398 -12 -269 44 -546 160 -801
l34 -74 8 105 c10 134 25 193 80 307 47 98 99 180 171 268 l44 55 -36 90 c-20
50 -54 118 -77 153 -47 73 -159 191 -237 251 -73 56 -79 60 -85 44z"/>
<path d="M14694 14151 c3 -52 6 -120 6 -152 l0 -57 73 -7 c39 -3 91 -2 114 2
l42 8 -61 70 c-34 39 -88 106 -121 150 l-60 80 7 -94z"/>
<path d="M13722 13793 c-22 -37 -67 -100 -101 -140 l-60 -72 62 -34 c34 -19
91 -49 126 -67 l64 -32 -7 59 c-4 32 -13 123 -22 202 -8 80 -16 146 -18 148
-2 2 -22 -27 -44 -64z"/>
<path d="M14849 13843 l-146 -4 -7 -121 c-7 -130 -17 -212 -42 -371 -9 -54
-13 -101 -9 -105 13 -14 360 -5 490 13 161 21 395 80 538 135 60 23 107 43
105 45 -2 1 -57 24 -123 50 -207 82 -361 167 -525 291 -54 41 -107 73 -117 72
-10 -1 -84 -4 -164 -5z"/>
<path d="M7075 18501 c-65 -40 -108 -114 -120 -206 -9 -68 8 -128 52 -176 91
-101 214 -109 315 -20 46 40 64 80 76 168 14 96 3 139 -46 185 -68 63 -213 89
-277 49z"/>
<path d="M8434 18009 c-79 -23 -144 -138 -144 -255 0 -78 14 -108 76 -163 81
-71 170 -78 258 -19 60 39 92 96 106 185 21 134 -22 204 -146 243 -71 21 -101
23 -150 9z"/>
<path d="M7290 17581 c-154 -50 -247 -222 -281 -521 -15 -132 -7 -478 15 -648
51 -390 155 -812 324 -1317 l87 -260 2 170 c9 725 36 1264 83 1685 49 428 52
467 48 604 -3 119 -5 136 -31 188 -36 73 -76 99 -160 104 -34 2 -73 0 -87 -5z"/>
<path d="M8261 17167 c-200 -76 -366 -531 -480 -1322 -49 -334 -109 -951 -100
-1014 3 -17 14 3 38 70 177 494 366 942 610 1448 152 315 184 391 207 502 18
84 13 141 -15 198 -49 94 -173 151 -260 118z"/>
<path d="M9255 16986 c-53 -20 -111 -86 -130 -149 -19 -63 -19 -147 -2 -190
17 -39 87 -104 133 -123 98 -41 235 23 280 131 19 47 27 156 15 202 -25 94
-193 166 -296 129z"/>
<path d="M8910 16438 c-64 -31 -204 -176 -286 -298 -182 -268 -375 -654 -581
-1160 -96 -235 -127 -318 -115 -305 6 6 65 82 133 170 263 343 480 602 749
890 252 271 300 331 345 426 27 58 33 128 14 176 -12 34 -64 90 -101 109 -39
20 -106 17 -158 -8z"/>
<path d="M10025 15612 c-50 -24 -68 -44 -96 -107 -15 -34 -23 -71 -23 -116 -1
-55 3 -72 27 -107 43 -66 98 -97 172 -97 115 0 189 75 207 209 9 71 8 80 -14
124 -19 38 -33 52 -78 74 -75 37 -143 44 -195 20z"/>
<path d="M9387 14998 c-73 -16 -187 -86 -310 -191 -92 -79 -283 -264 -308
-298 l-19 -27 123 39 c67 21 227 71 356 111 129 40 248 81 264 93 45 30 69 68
74 116 10 100 -81 179 -180 157z"/>
<path d="M9305 14546 c-132 -28 -248 -62 -414 -124 -95 -34 -120 -47 -105 -53
10 -4 184 -31 386 -60 l366 -52 49 24 c59 30 99 98 89 153 -9 46 -45 98 -81
116 -49 24 -167 22 -290 -4z"/>
<path d="M10245 14521 c-49 -22 -68 -43 -94 -101 -48 -111 -37 -193 38 -263
85 -79 176 -83 261 -10 56 48 71 83 78 176 4 65 2 86 -13 114 -22 41 -68 70
-138 89 -68 18 -84 17 -132 -5z"/>
<path d="M4143 13984 c-35 -17 -67 -61 -78 -107 -10 -38 19 -111 56 -140 l29
-22 -65 -515 c-36 -283 -66 -522 -67 -530 -2 -8 -57 221 -122 508 -118 517
-119 523 -99 537 27 19 53 75 53 115 0 64 -58 132 -125 144 -88 17 -186 -81
-169 -169 8 -47 55 -100 99 -115 19 -6 36 -19 39 -28 3 -9 55 -237 116 -507
61 -269 113 -497 116 -505 11 -30 -18 13 -296 444 l-283 438 17 35 c22 46 20
88 -6 134 -74 132 -272 80 -272 -71 0 -81 57 -140 140 -145 l49 -3 258 -399
c313 -483 323 -500 306 -487 -8 6 -199 151 -425 322 l-412 311 0 51 c0 74 -44
133 -109 146 -151 30 -243 -146 -133 -251 28 -27 38 -30 93 -30 34 0 69 4 78
8 11 6 129 -78 438 -313 233 -176 420 -320 416 -320 -4 0 -212 64 -463 141
-252 78 -478 148 -504 156 -39 11 -48 18 -48 36 0 38 -38 87 -83 107 -53 24
-71 24 -124 0 -110 -50 -112 -203 -3 -262 47 -26 109 -19 156 17 l37 28 499
-154 c390 -120 493 -155 471 -160 -15 -4 -249 -17 -520 -30 l-492 -23 -40 42
c-86 88 -218 57 -253 -59 -10 -34 -9 -46 8 -86 53 -127 197 -128 279 -1 8 13
92 20 535 41 289 14 526 24 527 23 1 -1 -219 -95 -490 -208 l-491 -207 -23 21
c-17 16 -40 23 -82 26 -58 4 -61 3 -102 -35 -38 -36 -43 -45 -46 -94 -3 -42 0
-61 16 -87 74 -117 247 -83 270 54 l6 35 485 204 c266 112 485 203 487 201 1
-1 -171 -163 -383 -360 -374 -347 -387 -357 -417 -350 -81 18 -140 -8 -175
-78 -28 -55 -23 -104 15 -149 37 -44 79 -62 129 -56 86 9 141 80 130 166 l-6
47 382 354 c210 195 385 356 389 358 4 2 -101 -208 -234 -467 l-240 -469 -43
-7 c-48 -7 -97 -42 -119 -86 -36 -70 0 -161 76 -193 63 -26 112 -16 160 32 50
51 58 99 27 162 l-24 48 240 470 c133 258 242 469 244 467 3 -2 -127 -1049
-131 -1049 -1 -1 -20 -11 -41 -22 -103 -55 -100 -200 4 -255 43 -24 85 -24
130 -1 95 47 109 187 24 249 l-26 19 61 495 c34 271 65 507 69 523 6 23 34
-88 124 -484 l117 -513 -29 -34 c-56 -63 -54 -144 4 -201 31 -31 43 -36 95
-40 58 -4 60 -3 103 36 42 40 43 42 43 105 0 56 -4 69 -25 93 -14 14 -43 35
-65 45 l-39 18 -117 513 c-65 282 -117 514 -115 515 1 1 131 -198 289 -443
l287 -445 -15 -29 c-49 -95 23 -213 129 -213 85 0 146 61 146 145 0 81 -68
148 -151 148 l-37 0 -272 423 c-150 232 -280 433 -289 447 -15 23 -13 22 29
-8 25 -18 216 -162 425 -321 l380 -288 -3 -37 c-5 -57 30 -120 82 -145 50 -25
75 -26 119 -7 103 43 125 172 43 244 -43 37 -92 47 -145 28 l-41 -14 -423 320
c-232 176 -424 321 -425 323 -5 4 -26 11 478 -144 570 -176 550 -169 550 -194
0 -34 35 -84 72 -103 102 -53 226 26 215 137 -12 129 -149 183 -244 96 l-22
-20 -501 154 c-275 85 -500 156 -500 159 0 3 215 16 478 28 262 13 497 25 522
28 42 4 46 3 67 -29 41 -65 134 -85 199 -42 62 41 83 138 44 203 -26 42 -99
76 -144 68 -47 -9 -92 -40 -107 -75 -17 -39 11 -36 -549 -61 -250 -11 -473
-22 -495 -24 -38 -4 -39 -4 -15 9 14 7 235 101 492 209 l467 196 37 -25 c71
-48 167 -23 206 55 50 99 -19 210 -132 210 -78 0 -116 -35 -146 -133 -8 -27
-44 -43 -493 -233 -266 -112 -485 -203 -486 -201 -6 7 778 721 788 717 7 -3
38 -5 69 -5 53 0 61 3 95 38 36 35 38 41 38 102 0 61 -2 67 -38 102 -35 36
-41 38 -101 38 -55 0 -68 -4 -91 -25 -43 -41 -58 -78 -53 -134 l5 -51 -324
-300 c-178 -165 -354 -327 -390 -360 l-67 -60 190 370 c104 203 214 418 244
477 54 106 56 108 90 108 52 0 98 33 122 86 55 126 -73 247 -198 188 -75 -36
-102 -120 -65 -198 l22 -45 -238 -465 c-131 -255 -239 -457 -241 -448 -5 34
126 1026 137 1030 31 10 78 52 93 82 23 45 23 87 -1 130 -38 73 -124 100 -198
64z"/>
<path d="M11578 12091 c-31 -10 -72 -28 -91 -40 -54 -33 -126 -116 -155 -179
-24 -50 -27 -69 -27 -162 0 -99 2 -110 33 -172 41 -84 128 -167 209 -199 46
-19 78 -23 153 -24 86 0 101 3 162 32 122 58 205 166 230 301 31 167 -67 348
-227 424 -86 40 -201 48 -287 19z"/>
<path d="M17105 12098 c-301 -207 -599 -554 -758 -880 -103 -209 -157 -403
-179 -630 l-12 -126 -85 73 c-263 224 -596 371 -952 419 -134 19 -339 30 -368
21 -18 -5 9 -21 140 -81 443 -202 827 -448 978 -625 l30 -36 -96 -84 c-206
-182 -448 -454 -588 -664 -86 -128 -177 -315 -210 -430 -15 -51 -29 -129 -32
-181 -6 -91 3 -204 15 -204 4 0 20 41 36 91 37 116 143 327 228 455 207 311
499 585 821 769 l47 27 0 -119 c0 -254 66 -522 196 -802 45 -96 194 -354 201
-347 2 2 -15 57 -37 122 -140 403 -181 775 -114 1038 26 103 90 220 158 290
198 201 630 388 1178 511 177 40 418 85 453 85 51 0 31 18 -28 24 -542 57
-1183 -51 -1627 -274 -44 -22 -83 -40 -86 -40 -12 0 4 198 26 325 80 469 276
863 572 1150 56 56 121 115 143 133 58 46 20 39 -50 -10z m-725 -1748 c43 -43
12 -148 -65 -219 -47 -43 -101 -60 -144 -45 -35 13 -55 72 -41 124 12 45 77
121 122 143 46 23 103 22 128 -3z"/>
<path d="M11580 9152 c-109 -37 -200 -117 -248 -220 -24 -50 -27 -69 -27 -162
0 -99 2 -110 33 -172 41 -84 128 -167 209 -199 46 -19 78 -23 153 -24 86 0
101 3 162 32 122 58 205 166 230 301 31 167 -67 348 -227 424 -86 40 -201 48
-285 20z"/>
<path d="M4626 6569 c-69 -94 -126 -177 -126 -183 0 -14 158 -377 169 -388 3
-4 90 -17 191 -28 102 -11 197 -22 212 -25 25 -4 37 9 155 171 70 97 127 180
126 184 -3 9 -165 383 -168 388 -2 2 -81 12 -176 22 -96 11 -193 22 -215 25
l-42 6 -126 -172z"/>
<path d="M11590 4760 c-420 -1330 -456 -1438 -471 -1422 -9 9 -207 287 -440
617 -233 330 -549 778 -702 995 -267 378 -349 489 -275 370 47 -76 467 -743
934 -1484 215 -342 390 -622 389 -623 -1 -2 -190 63 -421 143 -1131 392 -1717
594 -1720 591 -4 -4 -4 -4 1284 -557 525 -225 888 -386 880 -390 -7 -4 -390
-110 -850 -235 -461 -126 -836 -230 -834 -232 3 -4 1751 342 1844 364 21 5 22
2 23 -63 l1 -69 12 50 c6 28 14 50 17 50 4 0 230 -229 504 -510 491 -504 738
-754 699 -705 -27 33 -155 183 -665 784 -234 275 -422 502 -418 504 5 2 540
-115 1191 -259 1294 -287 1235 -274 1228 -267 -3 2 -544 166 -1202 364 -659
197 -1198 361 -1198 364 0 3 549 326 1220 719 671 392 1220 715 1220 717 0 3
-163 -78 -362 -180 -1265 -645 -2133 -1085 -2135 -1082 -2 2 157 650 352 1441
195 791 354 1440 352 1441 -1 2 -207 -645 -457 -1436z"/>
</g>
</svg>
